<svg xmlns="http://www.w3.org/2000/svg" width="265" height="62" fill="none" viewBox="0 0 265 62"><g fill="#fff" fill-rule="evenodd" clip-path="url(#a)" clip-rule="evenodd"><path d="M82.172 40.978h8.835v9.487h4.118v-9.487h8.876v-4.305h-8.876v-9.487h-4.118v9.487h-8.835zM115.035 50.214c1.2.335 3.039.71 5.518.71 2.918 0 5.357-.71 7.036-2.214 2.159-1.965 3.558-5.308 3.558-10.866 0-4.681-.919-7.565-2.558-9.279-1.36-1.337-3.319-1.964-5.917-1.964-2.199 0-4.078.418-4.918.92-.48.334-1.759 1.755-2.399 2.59h-.32l-.919-3.008h-4.198V62h5.117zm10.835-11.702c0 3.72-.68 5.81-1.879 6.938-1 .961-2.439 1.295-4.278 1.295-1.559 0-3.598-.125-4.678-.25V31.993c1.12-.46 3.119-1.003 5.038-1.003s3.318.25 4.238 1.17c1.079 1.128 1.559 3.134 1.559 6.352m10.994-21.774v27.25c0 4.93 1.64 7.02 5.997 7.02 1.52 0 3.159-.376 4.318-.668v-3.845c-.759.167-1.639.292-2.638.292-1.68 0-2.559-.752-2.559-3.134V16.738zm32.464 33.853V35.127c0-3.678-.72-5.684-1.959-6.812-1.319-1.17-3.598-1.756-6.637-1.756-3.718 0-7.116.878-9.235 1.547v3.887c1.879-.293 5.078-.878 7.716-.878 1.799 0 3.518.209 4.198 1.17.6.752.8 2.424.8 3.845-4.638.418-9.316 1.128-11.475 2.34-1.239.711-2.758 2.174-2.758 5.935 0 1.923.52 3.761 1.479 4.89 1.04 1.128 2.479 1.713 5.158 1.713 2.078 0 4.277-.418 5.157-1.003.24-.209 1.519-1.546 2.199-2.465h.28l.999 3.05zm-5.117-4.472c-1.12.292-3.159.668-5.278.668-1.719 0-2.678-.292-3.238-.794-.48-.501-.76-1.42-.76-2.59 0-1.338.28-2.132.72-2.55.72-.669 5.557-1.003 8.556-1.129zm27.226-2.466c0-2.132-.4-3.385-1.279-4.347-1.08-1.128-3.039-1.755-5.797-2.507-2.399-.627-3.519-1.17-3.958-1.797-.36-.418-.44-.878-.44-1.505 0-1.797.719-2.758 4.637-2.758 2.239 0 4.638.292 6.317.585V27.27c-1.399-.334-3.998-.71-6.916-.71-6.717 0-8.956 3.009-8.956 7.313 0 1.672.24 2.842.92 3.845.959 1.463 2.798 2.382 5.917 3.218 2.279.669 3.558 1.045 4.198 1.714.36.376.479.836.479 1.588 0 1.839-.919 2.884-4.997 2.884-2.079 0-4.998-.46-6.717-.836v3.97c1.64.418 4.678.878 7.277.878 6.956 0 9.315-2.466 9.315-7.481m19.39-16.508h-7.796v-5.141l-5.117 1.003v4.138h-3.359v4.012h3.359V43.82c0 4.89 1.479 7.188 6.556 7.188 2.399 0 4.278-.418 5.798-.836l.319-3.928c-.879.125-2.878.292-4.158.292-2.518 0-3.398-.543-3.398-3.719v-11.66h6.917zm9.515 23.446V27.144h-5.117V50.59zm.48-31.011c0-1.128-.24-2.048-.719-2.466-.4-.334-1.2-.543-2.159-.543-1.08 0-1.759.25-2.159.501-.48.418-.92 1.296-.92 2.55 0 1.086.28 1.922.68 2.34.44.376 1.119.627 2.279.627.959 0 1.839-.167 2.279-.543.479-.46.719-1.421.719-2.466m17.711 11.368c2.359 0 4.518.334 5.837.501v-4.096a29.8 29.8 0 0 0-7.036-.835c-3.478 0-6.157 1.003-7.956 2.883-1.999 2.048-3.079 5.475-3.079 9.822 0 4.89 1.12 7.94 3.199 9.696 1.679 1.463 4.038 2.131 7.156 2.131 3.439 0 5.877-.668 7.716-1.337V45.95c-1.679.251-3.998.544-6.396.544-1.959 0-3.519-.293-4.558-1.17-1.239-1.045-1.839-3.01-1.839-6.228s.52-5.35 1.439-6.477c1-1.17 2.879-1.672 5.517-1.672M265 43.653c0-2.132-.4-3.385-1.279-4.347-1.08-1.128-3.039-1.755-5.797-2.507-2.399-.627-3.519-1.17-3.958-1.797-.36-.418-.44-.878-.44-1.505 0-1.797.719-2.758 4.637-2.758 2.239 0 4.638.292 6.317.585V27.27c-1.399-.334-3.998-.71-6.916-.71-6.717 0-8.956 3.009-8.956 7.313 0 1.672.24 2.842.92 3.845.959 1.463 2.798 2.382 5.917 3.218 2.279.669 3.558 1.045 4.198 1.714.36.376.479.836.479 1.588 0 1.839-.919 2.884-4.997 2.884-2.079 0-4.998-.46-6.717-.836v3.97c1.64.418 4.678.878 7.277.878 6.956 0 9.315-2.466 9.315-7.481M60.46 12.963H44.098V0h46.55v12.963H74.293v38.394H60.46z"/><path d="M35.689 35.942c0 1.637-1.553 2.386-2.995 2.386H16.558c-1.562 0-2.758-1.313-2.895-2.529V16.13c0-1.717 1.42-3.051 2.642-3.051h24.861V.084H15.202c-4.547 0-8.382 1.445-11.09 4.186C1.418 6.99 0 10.793 0 15.268v21.064c0 1.968.303 3.786.896 5.412.953 3.02 2.692 5.49 5.031 7.15 2.329 1.651 5.154 2.505 8.406 2.505h18.884c4.278-.004 7.892-1.658 10.458-4.483 2.558-2.817 3.755-6.823 3.755-11.576 0-.338-.004-3.086-.014-3.49v-8.042l.014-4.416H27.486v10.964h8.203z"/></g><defs><clipPath id="a"><path fill="#fff" d="M0 0h265v62H0z"/></clipPath></defs></svg>