<svg width="1080" height="1080" viewBox="0 0 1080 1080" fill="none" xmlns="http://www.w3.org/2000/svg">
<g clip-path="url(#clip0_2_288)">
<path opacity="0.78" d="M216.143 972.671V1080.74H324.214V972.671H216.143Z" fill="#235C37"/>
<path opacity="0.71" d="M216.143 864.59V972.661H324.214V864.59H216.143Z" fill="#235C37"/>
<path opacity="0.61" d="M216.143 756.509V864.58H324.214V756.509H216.143Z" fill="#235C37"/>
<path opacity="0.53" d="M216.143 648.438V756.509H324.214V648.438H216.143Z" fill="#235C37"/>
<path opacity="0.43" d="M216.143 540.366V648.438H324.214V540.366H216.143Z" fill="#235C37"/>
<path opacity="0.34" d="M216.143 432.295V540.366H324.214V432.295H216.143Z" fill="#235C37"/>
<path opacity="0.26" d="M216.143 324.224V432.295H324.214V324.224H216.143Z" fill="#235C37"/>
<path opacity="0.18" d="M216.143 216.143V324.214H324.214V216.143H216.143Z" fill="#235C37"/>
<path opacity="0.86" d="M108.071 972.671V1080.74H216.143V972.671H108.071Z" fill="#235C37"/>
<path opacity="0.78" d="M108.071 864.59V972.661H216.143V864.59H108.071Z" fill="#235C37"/>
<path opacity="0.71" d="M108.071 756.509V864.58H216.143V756.509H108.071Z" fill="#235C37"/>
<path opacity="0.61" d="M108.071 648.438V756.509H216.143V648.438H108.071Z" fill="#235C37"/>
<path opacity="0.53" d="M108.071 540.366V648.438H216.143V540.366H108.071Z" fill="#235C37"/>
<path opacity="0.43" d="M108.071 432.295V540.366H216.143V432.295H108.071Z" fill="#235C37"/>
<path opacity="0.34" d="M108.071 324.224V432.295H216.143V324.224H108.071Z" fill="#235C37"/>
<path opacity="0.26" d="M108.071 216.152V324.224H216.143V216.152H108.071Z" fill="#235C37"/>
<path opacity="0.95" d="M0 972.671L0 1080.74H108.071V972.671H0Z" fill="#235C37"/>
<path opacity="0.86" d="M0 864.59L0 972.661H108.071V864.59H0Z" fill="#235C37"/>
<path opacity="0.78" d="M0 756.509L0 864.58H108.071V756.509H0Z" fill="#235C37"/>
<path opacity="0.71" d="M0 648.438L0 756.509H108.071V648.438H0Z" fill="#235C37"/>
<path opacity="0.61" d="M0 540.366L0 648.438H108.071V540.366H0Z" fill="#235C37"/>
<path opacity="0.53" d="M0 432.295L0 540.366H108.071V432.295H0Z" fill="#235C37"/>
<path opacity="0.43" d="M0 324.224L0 432.295H108.071V324.224H0Z" fill="#235C37"/>
<path opacity="0.34" d="M0 216.152L0 324.224H108.071V216.152H0Z" fill="#235C37"/>
<path opacity="0.71" d="M324.214 972.671V1080.74H432.285V972.671H324.214Z" fill="#235C37"/>
<path opacity="0.61" d="M324.214 864.59V972.661H432.285V864.59H324.214Z" fill="#235C37"/>
<path opacity="0.53" d="M324.214 756.509V864.58H432.285V756.509H324.214Z" fill="#235C37"/>
<path opacity="0.43" d="M324.214 648.438V756.509H432.285V648.438H324.214Z" fill="#235C37"/>
<path opacity="0.34" d="M324.214 540.366V648.438H432.285V540.366H324.214Z" fill="#235C37"/>
<path opacity="0.26" d="M324.214 432.295V540.366H432.285V432.295H324.214Z" fill="#235C37"/>
<path opacity="0.18" d="M324.214 324.224V432.295H432.285V324.224H324.214Z" fill="#235C37"/>
<path opacity="0.1" d="M324.214 216.152V324.224H432.285V216.152H324.214Z" fill="#235C37"/>
<path opacity="0.61" d="M432.285 972.671V1080.74H540.356V972.671H432.285Z" fill="#235C37"/>
<path opacity="0.53" d="M432.285 864.59V972.661H540.356V864.59H432.285Z" fill="#235C37"/>
<path opacity="0.43" d="M432.285 756.509V864.58H540.356V756.509H432.285Z" fill="#235C37"/>
<path opacity="0.34" d="M432.285 648.438V756.509H540.356V648.438H432.285Z" fill="#235C37"/>
<path opacity="0.26" d="M432.285 540.366V648.438H540.356V540.366H432.285Z" fill="#235C37"/>
<path opacity="0.18" d="M432.285 432.295V540.366H540.356V432.295H432.285Z" fill="#235C37"/>
<path opacity="0.1" d="M432.285 324.224V432.295H540.356V324.224H432.285Z" fill="#235C37"/>
<path opacity="0.04" d="M432.285 216.152V324.224H540.356V216.152H432.285Z" fill="#235C37"/>
<path opacity="0.53" d="M540.356 972.671V1080.74H648.428V972.671H540.356Z" fill="#235C37"/>
<path opacity="0.43" d="M540.356 864.59V972.661H648.427V864.59H540.356Z" fill="#235C37"/>
<path opacity="0.34" d="M540.356 756.509V864.58H648.427V756.509H540.356Z" fill="#235C37"/>
<path opacity="0.26" d="M540.356 648.438V756.509H648.427V648.438H540.356Z" fill="#235C37"/>
<path opacity="0.18" d="M540.356 540.366V648.438H648.427V540.366H540.356Z" fill="#235C37"/>
<path opacity="0.1" d="M540.356 432.295V540.366H648.427V432.295H540.356Z" fill="#235C37"/>
<path opacity="0.04" d="M540.356 324.224V432.295H648.428V324.224H540.356Z" fill="#235C37"/>
<path opacity="0.43" d="M648.428 972.671V1080.74H756.499V972.671H648.428Z" fill="#235C37"/>
<path opacity="0.34" d="M648.427 864.59V972.661H756.499V864.59H648.427Z" fill="#235C37"/>
<path opacity="0.26" d="M648.427 756.509V864.58H756.499V756.509H648.427Z" fill="#235C37"/>
<path opacity="0.18" d="M648.427 648.438V756.509H756.499V648.438H648.427Z" fill="#235C37"/>
<path opacity="0.1" d="M648.427 540.366V648.438H756.499V540.366H648.427Z" fill="#235C37"/>
<path opacity="0.04" d="M648.427 432.295V540.366H756.498V432.295H648.427Z" fill="#235C37"/>
<path opacity="0.34" d="M756.499 972.681V1080.75H864.57V972.681H756.499Z" fill="#235C37"/>
<path opacity="0.26" d="M756.499 864.59V972.661H864.57V864.59H756.499Z" fill="#235C37"/>
<path opacity="0.18" d="M756.499 756.509V864.58H864.57V756.509H756.499Z" fill="#235C37"/>
<path opacity="0.1" d="M756.499 648.438V756.509H864.57V648.438H756.499Z" fill="#235C37"/>
<path opacity="0.04" d="M756.499 540.366V648.438H864.57V540.366H756.499Z" fill="#235C37"/>
<path opacity="0.26" d="M864.57 972.681V1080.75H972.642V972.681H864.57Z" fill="#235C37"/>
<path opacity="0.18" d="M864.57 864.6V972.671H972.641V864.6H864.57Z" fill="#235C37"/>
<path opacity="0.1" d="M864.57 756.509V864.58H972.641V756.509H864.57Z" fill="#235C37"/>
<path opacity="0.04" d="M864.57 648.438V756.509H972.641V648.438H864.57Z" fill="#235C37"/>
<path opacity="0.1" d="M216.143 108.071V216.143H324.214V108.071H216.143Z" fill="#235C37"/>
<path opacity="0.18" d="M108.071 108.071V216.143H216.143V108.071H108.071Z" fill="#235C37"/>
<path opacity="0.26" d="M0 108.071L0 216.143H108.071V108.071H0Z" fill="#235C37"/>
<path opacity="0.04" d="M324.214 108.071V216.143H432.285V108.071H324.214Z" fill="#235C37"/>
<path opacity="0.04" d="M216.143 3.05176e-05V108.071H324.214V3.05176e-05H216.143Z" fill="#235C37"/>
<path opacity="0.1" d="M108.071 3.05176e-05V108.071H216.143V3.05176e-05H108.071Z" fill="#235C37"/>
<path opacity="0.18" d="M0 0L0 108.071H108.071V0H0Z" fill="#235C37"/>
<path opacity="0.18" d="M972.642 972.681V1080.75H1080.71V972.681H972.642Z" fill="#235C37"/>
<path opacity="0.1" d="M972.641 864.6V972.671H1080.71V864.6H972.641Z" fill="#235C37"/>
<path opacity="0.04" d="M972.641 756.519V864.59H1080.71V756.519H972.641Z" fill="#235C37"/>
</g>
<defs>
<clipPath id="clip0_2_288">
<rect width="1080" height="1080" fill="white"/>
</clipPath>
</defs>
</svg>
