<svg width="74" height="74" viewBox="0 0 74 74" fill="none" xmlns="http://www.w3.org/2000/svg">
<path d="M62.6087 24.5472C61.3553 24.0269 59.932 24.2824 58.9399 25.1924L53.1876 29.844V27.7523C53.1876 26.344 52.347 25.086 51.0462 24.5484C49.7905 24.0281 48.3707 24.2836 47.3774 25.1936L41.6251 29.844V27.7523C41.6251 26.344 40.7845 25.086 39.4837 24.5484C38.2292 24.0281 36.807 24.2836 35.8149 25.1936L27.4599 31.9484L25.4353 13.7259C25.3567 11.2446 23.3136 9.25003 20.8126 9.25003H16.1876C13.6867 9.25003 11.6436 11.2446 11.5649 13.7259L9.264 34.4331C9.25937 34.4771 9.26515 34.5187 9.26284 34.5615C9.26053 34.6031 9.25012 34.6436 9.25012 34.6875V62.4375C9.25012 63.714 10.2861 64.75 11.5626 64.75H62.4376C63.7141 64.75 64.7501 63.714 64.7501 62.4375V27.7523C64.7501 26.344 63.9095 25.086 62.6087 24.5472ZM16.1876 13.875H20.8126C20.8126 13.9606 20.8172 14.045 20.8265 14.1306L22.8534 32.375H14.1457L16.1726 14.1306C16.183 14.045 16.1876 13.9606 16.1876 13.875ZM60.1251 60.125H13.8751V37H27.7501C28.2797 37 28.7919 36.8185 29.2035 36.4855L37.0001 30.1828V34.6875C37.0001 35.579 37.5123 36.3907 38.3159 36.7745C39.1218 37.1607 40.0746 37.0463 40.766 36.4855L48.5626 30.1828V34.6875C48.5626 35.579 49.0748 36.3907 49.8784 36.7745C50.6832 37.1607 51.6371 37.0463 52.3285 36.4855L60.1251 30.1828V60.125Z" fill="#50A819"/>
<path d="M27.7501 41.625H25.4376C24.1611 41.625 23.1251 42.661 23.1251 43.9375C23.1251 45.214 24.1611 46.25 25.4376 46.25H27.7501C29.0266 46.25 30.0626 45.214 30.0626 43.9375C30.0626 42.661 29.0266 41.625 27.7501 41.625Z" fill="#50A819"/>
<path d="M38.1565 41.625H35.844C34.5675 41.625 33.5315 42.661 33.5315 43.9375C33.5315 45.214 34.5675 46.25 35.844 46.25H38.1565C39.433 46.25 40.469 45.214 40.469 43.9375C40.469 42.661 39.433 41.625 38.1565 41.625Z" fill="#50A819"/>
<path d="M48.5625 41.625H46.25C44.9735 41.625 43.9375 42.661 43.9375 43.9375C43.9375 45.214 44.9735 46.25 46.25 46.25H48.5625C49.839 46.25 50.875 45.214 50.875 43.9375C50.875 42.661 49.839 41.625 48.5625 41.625Z" fill="#50A819"/>
<path d="M27.7501 50.875H25.4376C24.1611 50.875 23.1251 51.911 23.1251 53.1875C23.1251 54.464 24.1611 55.5 25.4376 55.5H27.7501C29.0266 55.5 30.0626 54.464 30.0626 53.1875C30.0626 51.911 29.0266 50.875 27.7501 50.875Z" fill="#50A819"/>
<path d="M38.1565 50.875H35.844C34.5675 50.875 33.5315 51.911 33.5315 53.1875C33.5315 54.464 34.5675 55.5 35.844 55.5H38.1565C39.433 55.5 40.469 54.464 40.469 53.1875C40.469 51.911 39.433 50.875 38.1565 50.875Z" fill="#50A819"/>
<path d="M48.5625 50.875H46.25C44.9735 50.875 43.9375 51.911 43.9375 53.1875C43.9375 54.464 44.9735 55.5 46.25 55.5H48.5625C49.839 55.5 50.875 54.464 50.875 53.1875C50.875 51.911 49.839 50.875 48.5625 50.875Z" fill="#50A819"/>
</svg>
