<svg width="50" height="50" viewBox="0 0 50 50" fill="none" xmlns="http://www.w3.org/2000/svg">
<g clip-path="url(#clip0_16_20)">
<path d="M25.0009 3.3595C30.7815 3.3595 36.217 5.6099 40.3045 9.69741C44.392 13.7849 46.6424 19.2204 46.6424 25.0009C46.6424 30.7815 44.392 36.217 40.3045 40.3045C36.217 44.392 30.7815 46.6424 25.0009 46.6424C19.2204 46.6424 13.7849 44.392 9.69741 40.3045C5.6099 36.217 3.3595 30.7815 3.3595 25.0009C3.3595 19.2204 5.6099 13.7849 9.69741 9.69741C13.7849 5.6099 19.2204 3.3595 25.0009 3.3595ZM25.0009 0C11.1933 0 0 11.1933 0 25.0009C0 38.8086 11.1933 50.0019 25.0009 50.0019C38.8086 50.0019 50.0019 38.8086 50.0019 25.0009C50.0019 11.1933 38.8067 0 25.0009 0Z" fill="#50A819"/>
<path d="M35.2273 14.7727C34.5713 14.1167 33.5078 14.1167 32.8518 14.7727L24.9991 22.6254L17.1463 14.7727C16.4904 14.1167 15.4268 14.1167 14.7708 14.7727C14.1148 15.4287 14.1148 16.4922 14.7708 17.1482L22.6235 25.0009L14.7708 32.8537C14.1148 33.5096 14.1148 34.5732 14.7708 35.2292C15.0988 35.5572 15.5291 35.7202 15.9576 35.7202C16.3861 35.7202 16.8164 35.5553 17.1444 35.2292L24.9972 27.3765L32.8499 35.2292C33.1779 35.5572 33.6082 35.7202 34.0367 35.7202C34.4652 35.7202 34.8955 35.5553 35.2235 35.2292C35.8795 34.5732 35.8795 33.5096 35.2235 32.8537L27.3708 25.0009L35.2235 17.1482C35.8795 16.4922 35.8795 15.4287 35.2235 14.7727H35.2273Z" fill="#50A819"/>
</g>
<defs>
<clipPath id="clip0_16_20">
<rect width="50" height="50" fill="white"/>
</clipPath>
</defs>
</svg>
