<svg width="51" height="51" viewBox="0 0 51 51" fill="none" xmlns="http://www.w3.org/2000/svg">
<g clip-path="url(#clip0_16_15)">
<path d="M0 25.5C0 20.4566 1.49555 15.5264 4.29753 11.333C7.0995 7.13952 11.0821 3.87112 15.7416 1.94108C20.4011 0.0110488 25.5283 -0.493936 30.4748 0.489987C35.4213 1.47391 39.965 3.90255 43.5312 7.46879C47.0975 11.035 49.5261 15.5787 50.51 20.5252C51.494 25.4717 50.989 30.5989 49.0589 35.2584C47.1289 39.918 43.8605 43.9005 39.6671 46.7025C35.4736 49.5045 30.5434 51 25.5 51C18.7394 50.9921 12.2579 48.303 7.47748 43.5225C2.697 38.7421 0.0078736 32.2606 0 25.5ZM46.75 25.5C46.75 21.2972 45.5037 17.1887 43.1687 13.6941C40.8338 10.1996 37.515 7.47594 33.632 5.86757C29.7491 4.25921 25.4764 3.83839 21.3543 4.65833C17.2322 5.47826 13.4459 7.50213 10.474 10.474C7.50212 13.4459 5.47825 17.2323 4.65831 21.3543C3.83838 25.4764 4.2592 29.7491 5.86756 33.632C7.47592 37.515 10.1996 40.8338 13.6941 43.1688C17.1887 45.5037 21.2972 46.75 25.5 46.75C31.1339 46.7436 36.5351 44.5026 40.5189 40.5189C44.5026 36.5352 46.7435 31.1339 46.75 25.5Z" fill="#50A819"/>
<path d="M34.186 43.0238C34.3153 42.7763 34.3946 42.5056 34.4192 42.2274C34.4439 41.9492 34.4135 41.6689 34.3297 41.4024C34.2459 41.136 34.1104 40.8887 33.931 40.6747C33.7515 40.4606 33.5317 40.2841 33.284 40.1551L31.6456 39.3051C34.5889 37.9917 37.035 35.7713 38.6262 32.9684C40.2174 30.1654 40.8703 26.927 40.4894 23.7265C40.1085 20.526 38.7139 17.5313 36.5093 15.1801C34.3048 12.8289 31.4059 11.2445 28.2365 10.6586C25.0671 10.0727 21.7934 10.516 18.894 11.9236C15.9946 13.3313 13.6214 15.6295 12.1215 18.4823C10.6216 21.3351 10.0735 24.5929 10.5575 27.7794C11.0415 30.966 12.532 33.9142 14.8113 36.193C15.0086 36.3904 15.2429 36.5469 15.5007 36.6538C15.7585 36.7606 16.0348 36.8156 16.3139 36.8157C16.5929 36.8157 16.8693 36.7608 17.1271 36.6541C17.3849 36.5473 17.6192 36.3908 17.8166 36.1935C18.014 35.9962 18.1705 35.762 18.2774 35.5042C18.3842 35.2464 18.4392 34.9701 18.4393 34.691C18.4393 34.4119 18.3844 34.1356 18.2777 33.8777C18.1709 33.6199 18.0144 33.3856 17.8171 33.1882C16.1559 31.5322 15.0748 29.3833 14.7352 27.0624C14.3956 24.7414 14.8156 22.3729 15.9327 20.3103C17.0498 18.2477 18.804 16.6017 20.9334 15.6179C23.0629 14.6342 25.4533 14.3655 27.748 14.852C30.0427 15.3385 32.1185 16.554 33.6656 18.3171C35.2127 20.0802 36.1481 22.2964 36.3322 24.6349C36.5163 26.9733 35.9392 29.3086 34.687 31.2921C33.4349 33.2756 31.5749 34.801 29.3846 35.6405L30.9263 32.6857C31.0602 32.4379 31.1435 32.1659 31.1713 31.8857C31.1992 31.6054 31.171 31.3224 31.0886 31.0531C31.0061 30.7838 30.8708 30.5335 30.6908 30.317C30.5107 30.1004 30.2894 29.9217 30.0397 29.7915C29.7899 29.6612 29.5168 29.5818 29.2362 29.5581C28.9555 29.5343 28.6729 29.5665 28.4049 29.6529C28.1368 29.7393 27.8885 29.8782 27.6746 30.0614C27.4607 30.2446 27.2853 30.4685 27.1586 30.7201L23.6163 37.5063C23.4573 37.8087 23.3745 38.1453 23.3751 38.4869C23.3743 38.8761 23.4805 39.2579 23.6819 39.5908C23.8833 39.9238 24.1723 40.195 24.5173 40.375L31.3173 43.9238C31.5647 44.0532 31.8352 44.1325 32.1133 44.1573C32.3914 44.1821 32.6717 44.1519 32.9381 44.0683C33.2046 43.9847 33.4519 43.8495 33.666 43.6702C33.8801 43.491 34.0568 43.2714 34.186 43.0238Z" fill="#50A819"/>
</g>
<defs>
<clipPath id="clip0_16_15">
<rect width="51" height="51" fill="white"/>
</clipPath>
</defs>
</svg>
