<svg width="61" height="59" viewBox="0 0 61 59" fill="none" xmlns="http://www.w3.org/2000/svg">
<path d="M14.2521 27.3164C12.9119 27.3164 11.686 26.8765 10.8839 26.1147C10.7725 26.0083 10.6831 25.881 10.6208 25.7401C10.5586 25.5991 10.5247 25.4473 10.5211 25.2933C10.5176 25.1393 10.5444 24.986 10.6 24.8423C10.6557 24.6987 10.7391 24.5674 10.8455 24.4559C10.9518 24.3445 11.0791 24.2551 11.2201 24.1928C11.361 24.1306 11.5128 24.0967 11.6669 24.0931C11.8209 24.0895 11.9741 24.1163 12.1178 24.172C12.2615 24.2276 12.3928 24.311 12.5042 24.4174C12.7711 24.6726 13.3892 24.9702 14.2529 24.9702C15.4435 24.9702 16.1657 24.4035 16.1657 24.1542C16.1657 23.9555 15.6283 23.4489 14.5857 23.3529C14.486 23.3492 14.3841 23.3433 14.2829 23.3353C12.1032 23.1527 10.5218 21.8308 10.5218 20.1929C10.5218 18.4194 12.3935 17.0307 14.7815 17.0307C16.1224 17.0307 17.3476 17.4706 18.1504 18.2324C18.2637 18.3383 18.3548 18.4656 18.4186 18.6069C18.4824 18.7483 18.5175 18.9009 18.522 19.0559C18.5264 19.2109 18.5001 19.3652 18.4445 19.51C18.3889 19.6548 18.3051 19.7871 18.1981 19.8992C18.091 20.0114 17.9628 20.1013 17.8208 20.1636C17.6788 20.2259 17.5258 20.2595 17.3708 20.2623C17.2157 20.2651 17.0617 20.2372 16.9175 20.1801C16.7733 20.123 16.6419 20.0379 16.5308 19.9297C16.2632 19.6746 15.6451 19.3769 14.7815 19.3769C13.5908 19.3769 12.8679 19.9436 12.8679 20.1929C12.8679 20.3931 13.4156 20.9085 14.4809 20.9994C14.5542 21.0053 14.6194 21.0089 14.6869 21.0104L14.7551 21.0141C16.9341 21.1966 18.5155 22.5185 18.5148 24.1571C18.5111 25.9307 16.643 27.3164 14.2521 27.3164Z" fill="#50A819"/>
<path d="M15.6907 16.6532C15.6907 16.0053 15.1655 15.4801 14.5176 15.4801C13.8697 15.4801 13.3445 16.0053 13.3445 16.6532V18.2148C13.3445 18.8627 13.8697 19.3879 14.5176 19.3879C15.1655 19.3879 15.6907 18.8627 15.6907 18.2148V16.6532Z" fill="#50A819"/>
<path d="M15.6882 26.1382C15.6882 25.4903 15.163 24.9651 14.5152 24.9651C13.8673 24.9651 13.3421 25.4903 13.3421 26.1382V27.6998C13.3421 28.3477 13.8673 28.8729 14.5152 28.8729C15.163 28.8729 15.6882 28.3477 15.6882 27.6998V26.1382Z" fill="#50A819"/>
<path d="M14.5163 31.6128C11.6114 31.6128 8.81368 31.0674 6.42501 30.0351C4.24896 29.0959 2.50988 27.7894 1.39547 26.2578C0.469474 24.9842 0.00244477 23.611 0.00244477 22.1769C0.00244477 19.5478 1.58756 17.1181 4.46598 15.3365C7.16918 13.6619 10.7397 12.7403 14.5192 12.7403C18.2987 12.7403 21.8685 13.6619 24.5717 15.3365C27.4472 17.1188 29.033 19.5449 29.033 22.1769C29.033 23.611 28.5631 24.9842 27.64 26.2578C26.5263 27.7886 24.7872 29.0951 22.6112 30.0351C20.2189 31.0674 17.4204 31.6128 14.5163 31.6128ZM14.5163 15.0865C11.1671 15.0865 8.03578 15.8834 5.69844 17.3307C3.53632 18.6695 2.34565 20.3909 2.34565 22.1769C2.34565 23.1051 2.66458 24.0135 3.29291 24.8779C4.15952 26.0693 5.56573 27.1082 7.3554 27.8839C9.453 28.7909 11.9289 29.2696 14.5163 29.2696C17.1036 29.2696 19.5795 28.7909 21.6764 27.8847C23.4675 27.1104 24.8723 26.0715 25.7389 24.8787C26.3672 24.0172 26.6869 23.1051 26.6869 22.1769C26.6869 20.3909 25.4962 18.6695 23.3341 17.3307C20.996 15.8834 17.8647 15.0865 14.5163 15.0865Z" fill="#50A819"/>
<path d="M14.5168 38.3947C11.6222 38.3947 8.83323 37.8529 6.45189 36.8272L6.4277 36.8177C4.25238 35.8778 2.51037 34.5749 1.39302 33.0397C0.469962 31.7654 0 30.3959 0 28.9581C0 28.647 0.123591 28.3486 0.343585 28.1286C0.563578 27.9086 0.861953 27.785 1.17307 27.785C1.48419 27.785 1.78256 27.9086 2.00256 28.1286C2.22255 28.3486 2.34614 28.647 2.34614 28.9581C2.34614 29.8863 2.66507 30.7954 3.2934 31.6598C4.15707 32.8469 5.55449 33.8821 7.33463 34.6541L7.35662 34.6636C9.45789 35.5698 11.9301 36.0486 14.5168 36.0486C17.1034 36.0486 19.5756 35.5698 21.6762 34.6636L21.6974 34.6548C23.4783 33.8821 24.8757 32.8468 25.7394 31.6591C26.3677 30.7954 26.6866 29.8863 26.6866 28.9581C26.6866 28.647 26.8102 28.3486 27.0302 28.1286C27.2502 27.9086 27.5486 27.785 27.8597 27.785C28.1708 27.785 28.4692 27.9086 28.6892 28.1286C28.9092 28.3486 29.0328 28.647 29.0328 28.9581C29.0328 30.3929 28.5628 31.7654 27.6398 33.0397C26.5253 34.5713 24.7855 35.8778 22.6102 36.8177L22.5868 36.8272C20.1996 37.8529 17.4113 38.3947 14.5168 38.3947Z" fill="#50A819"/>
<path d="M14.517 45.1765C11.6224 45.1765 8.83347 44.6347 6.45214 43.609L6.42794 43.5994C4.2519 42.6595 2.51282 41.353 1.3984 39.8214C0.472407 38.5472 0.0053785 37.1747 0.0053785 35.7399C0.0053785 35.4287 0.12897 35.1304 0.348963 34.9104C0.568957 34.6904 0.867332 34.5668 1.17845 34.5668C1.48957 34.5668 1.78794 34.6904 2.00794 34.9104C2.22793 35.1304 2.35152 35.4287 2.35152 35.7399C2.35152 36.6681 2.67045 37.5772 3.29878 38.4409C4.16245 39.6279 5.55987 40.6638 7.34001 41.4359L7.362 41.4454C9.45813 42.3516 11.9304 42.8303 14.517 42.8303C17.1036 42.8303 19.5759 42.3516 21.6764 41.4454L21.6977 41.4359C23.4785 40.6638 24.876 39.6286 25.7396 38.4409C26.368 37.5808 26.6876 36.6681 26.6876 35.7399C26.6876 35.4287 26.8112 35.1304 27.0312 34.9104C27.2512 34.6904 27.5496 34.5668 27.8607 34.5668C28.1718 34.5668 28.4702 34.6904 28.6902 34.9104C28.9102 35.1304 29.0338 35.4287 29.0338 35.7399C29.0338 37.1747 28.5638 38.5472 27.6407 39.8207C26.5263 41.353 24.7865 42.6595 22.6112 43.5994L22.5877 43.609C20.1998 44.6347 17.4116 45.1765 14.517 45.1765Z" fill="#50A819"/>
<path d="M14.5168 38.3946C11.6128 38.3946 8.81499 37.8491 6.42632 36.8176C6.28489 36.7565 6.15687 36.6681 6.04957 36.5576C5.94228 36.447 5.85782 36.3164 5.801 36.1732C5.74419 36.03 5.71614 35.877 5.71845 35.7229C5.72077 35.5689 5.7534 35.4168 5.81449 35.2753C5.87558 35.1339 5.96393 35.0059 6.0745 34.8986C6.18507 34.7913 6.31568 34.7068 6.45889 34.65C6.6021 34.5932 6.7551 34.5652 6.90914 34.5675C7.06319 34.5698 7.21528 34.6024 7.35672 34.6635C9.45798 35.5697 11.9302 36.0485 14.5168 36.0485C17.1035 36.0485 19.5757 35.5697 21.6762 34.6635C21.8177 34.6024 21.9698 34.5698 22.1238 34.5675C22.2779 34.5652 22.4309 34.5932 22.5741 34.65C22.7173 34.7068 22.8479 34.7913 22.9585 34.8986C23.069 35.0059 23.1574 35.1339 23.2185 35.2753C23.2796 35.4168 23.3122 35.5689 23.3145 35.7229C23.3168 35.877 23.2888 36.03 23.232 36.1732C23.1751 36.3164 23.0907 36.447 22.9834 36.5576C22.8761 36.6681 22.7481 36.7565 22.6066 36.8176C20.218 37.8491 17.4202 38.3946 14.5168 38.3946Z" fill="#50A819"/>
<path d="M14.5168 51.959C11.6119 51.959 8.81416 51.4128 6.4255 50.3805C4.25238 49.4399 2.50891 48.1334 1.39302 46.6025C0.469962 45.329 0 43.9594 0 42.5224C0 42.2113 0.123591 41.9129 0.343585 41.6929C0.563578 41.4729 0.861953 41.3493 1.17307 41.3493C1.48419 41.3493 1.78256 41.4729 2.00256 41.6929C2.22255 41.9129 2.34614 42.2113 2.34614 42.5224C2.34614 43.4499 2.66507 44.3553 3.2934 45.2227C4.15927 46.4141 5.56622 47.453 7.35589 48.2287C9.45349 49.1349 11.9294 49.6144 14.5168 49.6144C17.1041 49.6144 19.58 49.1349 21.6769 48.2287C23.468 47.4544 24.8728 46.4155 25.7394 45.2227C26.3677 44.3583 26.6874 43.4499 26.6874 42.5224C26.6874 42.2113 26.811 41.9129 27.031 41.6929C27.2509 41.4729 27.5493 41.3493 27.8604 41.3493C28.1716 41.3493 28.4699 41.4729 28.6899 41.6929C28.9099 41.9129 29.0335 42.2113 29.0335 42.5224C29.0335 43.9565 28.5635 45.329 27.6405 46.6025C26.5268 48.1341 24.7877 49.4399 22.6117 50.3805C20.2193 51.4128 17.4208 51.959 14.5168 51.959Z" fill="#50A819"/>
<path d="M14.5168 45.1764C11.6128 45.1764 8.81499 44.6309 6.42632 43.5993C6.14068 43.476 5.91574 43.2442 5.801 42.9549C5.68626 42.6657 5.69112 42.3427 5.81449 42.0571C5.93787 41.7715 6.16967 41.5465 6.45889 41.4318C6.74811 41.317 7.07107 41.3219 7.35672 41.4453C9.45798 42.3515 11.9302 42.8302 14.5168 42.8302C17.1035 42.8302 19.5757 42.3515 21.6762 41.4453C21.9619 41.3219 22.2849 41.317 22.5741 41.4318C22.8633 41.5465 23.0951 41.7715 23.2185 42.0571C23.3418 42.3427 23.3467 42.6657 23.232 42.9549C23.1172 43.2442 22.8923 43.476 22.6066 43.5993C20.218 44.6309 17.4202 45.1764 14.5168 45.1764Z" fill="#50A819"/>
<path d="M14.5168 58.74C11.7461 58.74 9.05611 58.24 6.73929 57.2942C4.42248 56.3484 2.56609 54.9935 1.39302 53.3849C0.467029 52.1114 0 50.7382 0 49.3034C0 48.9922 0.123591 48.6939 0.343585 48.4739C0.563578 48.2539 0.861953 48.1303 1.17307 48.1303C1.48419 48.1303 1.78256 48.2539 2.00256 48.4739C2.22255 48.6939 2.34614 48.9922 2.34614 49.3034C2.34614 50.2316 2.66507 51.1407 3.2934 52.0051C5.23263 54.6709 9.63825 56.3938 14.5168 56.3938C19.3953 56.3938 23.7994 54.6709 25.7394 52.0051C26.3677 51.1443 26.6874 50.2316 26.6874 49.3034C26.6874 48.9922 26.811 48.6939 27.031 48.4739C27.2509 48.2539 27.5493 48.1303 27.8604 48.1303C28.1716 48.1303 28.4699 48.2539 28.6899 48.4739C28.9099 48.6939 29.0335 48.9922 29.0335 49.3034C29.0335 50.7382 28.5635 52.1114 27.6405 53.3849C26.4674 54.9935 24.6228 56.3455 22.2971 57.2942C19.9715 58.2429 17.2874 58.74 14.5168 58.74Z" fill="#50A819"/>
<path d="M14.5168 51.959C11.612 51.959 8.81422 51.4128 6.42556 50.3805C6.28128 50.3214 6.15024 50.2341 6.0401 50.1237C5.92995 50.0134 5.84291 49.8822 5.78406 49.7378C5.72521 49.5934 5.69574 49.4387 5.69736 49.2828C5.69898 49.1269 5.73167 48.9729 5.79352 48.8298C5.85536 48.6866 5.94511 48.5573 6.05754 48.4492C6.16996 48.3412 6.30279 48.2567 6.44826 48.2006C6.59374 48.1444 6.74894 48.1179 6.90479 48.1225C7.06064 48.1271 7.21402 48.1627 7.35595 48.2272C9.45355 49.1334 11.9295 49.6129 14.5168 49.6129C17.1042 49.6129 19.5801 49.1334 21.677 48.2272C21.8186 48.1642 21.9714 48.1298 22.1265 48.1262C22.2815 48.1226 22.4357 48.1498 22.5802 48.2061C22.7247 48.2625 22.8566 48.347 22.9682 48.4546C23.0798 48.5623 23.169 48.691 23.2305 48.8334C23.2921 48.9757 23.3248 49.1289 23.3268 49.2839C23.3288 49.439 23.3 49.5929 23.2421 49.7368C23.1842 49.8807 23.0984 50.0117 22.9896 50.1222C22.8807 50.2327 22.7511 50.3205 22.6081 50.3805C20.2194 51.4128 17.4209 51.959 14.5168 51.959Z" fill="#50A819"/>
<path d="M14.5167 58.7402C11.746 58.7402 9.05603 58.2401 6.73921 57.2944C4.42239 56.3486 2.56601 54.9937 1.39294 53.3851C1.21207 53.1334 1.13818 52.8203 1.18741 52.5143C1.23663 52.2082 1.40498 51.9341 1.65566 51.7518C1.90635 51.5695 2.219 51.4939 2.5253 51.5414C2.8316 51.5888 3.10666 51.7556 3.29038 52.0053C5.23255 54.6711 9.63816 56.394 14.5167 56.394C19.3952 56.394 23.7993 54.6711 25.7393 52.0053C25.9223 51.7532 26.1979 51.5841 26.5055 51.5352C26.8132 51.4863 27.1277 51.5616 27.3798 51.7446C27.6319 51.9276 27.801 52.2032 27.8498 52.5109C27.8987 52.8185 27.8234 53.133 27.6404 53.3851C26.4673 54.9937 24.6227 56.3456 22.2971 57.2944C19.9715 58.2431 17.2873 58.7402 14.5167 58.7402Z" fill="#50A819"/>
<path d="M27.8607 50.4764C27.5496 50.4764 27.2512 50.3529 27.0312 50.1329C26.8112 49.9129 26.6876 49.6145 26.6876 49.3034V22.1761C26.6876 21.865 26.8112 21.5666 27.0312 21.3466C27.2512 21.1266 27.5496 21.003 27.8607 21.003C28.1718 21.003 28.4702 21.1266 28.6902 21.3466C28.9102 21.5666 29.0338 21.865 29.0338 22.1761V49.3034C29.0338 49.6145 28.9102 49.9129 28.6902 50.1329C28.4702 50.3529 28.1718 50.4764 27.8607 50.4764Z" fill="#50A819"/>
<path d="M1.17307 50.4764C0.861953 50.4764 0.563578 50.3529 0.343585 50.1329C0.123591 49.9129 0 49.6145 0 49.3034V22.1761C0 21.865 0.123591 21.5666 0.343585 21.3466C0.563578 21.1266 0.861953 21.003 1.17307 21.003C1.48419 21.003 1.78256 21.1266 2.00256 21.3466C2.22255 21.5666 2.34614 21.865 2.34614 22.1761V49.3034C2.34614 49.6145 2.22255 49.9129 2.00256 50.1329C1.78256 50.3529 1.48419 50.4764 1.17307 50.4764Z" fill="#50A819"/>
<path d="M46.2193 40.8838C44.8783 40.8838 43.6532 40.4439 42.8504 39.6814C42.6295 39.4656 42.5026 39.1714 42.4972 38.8626C42.4918 38.5539 42.6085 38.2554 42.8218 38.0321C43.0351 37.8088 43.3278 37.6785 43.6365 37.6697C43.9452 37.6609 44.2449 37.7741 44.4707 37.9849C44.7375 38.2393 45.3556 38.5377 46.2193 38.5377C47.4092 38.5377 48.1321 37.9702 48.1321 37.7209C48.1321 37.523 47.5947 37.0156 46.5514 36.9196C46.4524 36.9196 46.3505 36.9108 46.2486 36.902C44.0689 36.7194 42.4875 35.3982 42.4882 33.7596C42.4882 31.9861 44.3592 30.5975 46.7472 30.5975C48.0874 30.5975 49.3133 31.0374 50.1153 31.7999C50.231 31.9051 50.3244 32.0325 50.3901 32.1744C50.4558 32.3163 50.4925 32.4699 50.498 32.6262C50.5034 32.7825 50.4776 32.9383 50.422 33.0844C50.3664 33.2306 50.2821 33.3642 50.1741 33.4773C50.0661 33.5904 49.9366 33.6808 49.7932 33.7431C49.6498 33.8055 49.4954 33.8385 49.339 33.8403C49.1826 33.8421 49.0275 33.8126 48.8826 33.7535C48.7378 33.6944 48.6063 33.607 48.4958 33.4964C48.2282 33.2413 47.6101 32.9436 46.7464 32.9436C45.5558 32.9436 44.8336 33.5111 44.8336 33.7603C44.8336 33.9605 45.3805 34.4752 46.4466 34.5668C46.5199 34.5727 46.5866 34.5764 46.6526 34.5786H46.7208C48.8998 34.7604 50.4812 36.0823 50.4812 37.7209C50.4775 39.4945 48.6087 40.8838 46.2193 40.8838Z" fill="#50A819"/>
<path d="M46.483 32.9517C46.1719 32.9517 45.8735 32.8281 45.6535 32.6081C45.4335 32.3881 45.3099 32.0897 45.3099 31.7786V30.217C45.3099 29.9058 45.4335 29.6075 45.6535 29.3875C45.8735 29.1675 46.1719 29.0439 46.483 29.0439C46.7941 29.0439 47.0925 29.1675 47.3125 29.3875C47.5325 29.6075 47.6561 29.9058 47.6561 30.217V31.7786C47.6561 32.0897 47.5325 32.3881 47.3125 32.6081C47.0925 32.8281 46.7941 32.9517 46.483 32.9517Z" fill="#50A819"/>
<path d="M47.6551 39.7025C47.6551 39.0546 47.1299 38.5294 46.482 38.5294C45.8342 38.5294 45.309 39.0546 45.309 39.7025V41.2641C45.309 41.912 45.8342 42.4372 46.482 42.4372C47.1299 42.4372 47.6551 41.912 47.6551 41.2641V39.7025Z" fill="#50A819"/>
<path d="M46.4831 45.177C43.579 45.177 40.7805 44.6316 38.3919 43.5985C36.2158 42.6593 34.4767 41.3528 33.3623 39.822C32.4363 38.5477 31.9693 37.1745 31.9693 35.7404C31.9693 33.112 33.5544 30.6815 36.4328 28.8999C39.136 27.2261 42.7066 26.3038 46.4861 26.3038C50.2656 26.3038 53.8354 27.2261 56.5386 28.8999C59.4148 30.6823 60.9999 33.112 60.9999 35.7404C60.9999 37.1745 60.5299 38.5477 59.6069 39.8212C58.4932 41.3521 56.7541 42.6586 54.5781 43.5985C52.1865 44.6316 49.3887 45.177 46.4831 45.177ZM46.4831 28.6499C43.134 28.6499 40.0026 29.4469 37.6653 30.8949C35.5039 32.2337 34.3125 33.9544 34.3125 35.7404C34.3125 36.6686 34.6314 37.5777 35.2598 38.4414C36.1271 39.6335 37.5326 40.6717 39.3223 41.4474C41.4199 42.3536 43.8965 42.8331 46.4831 42.8331C49.0698 42.8331 51.5464 42.3536 53.6433 41.4474C55.4344 40.6739 56.8392 39.635 57.7058 38.4414C58.3348 37.5807 58.6537 36.6686 58.6537 35.7404C58.6537 33.9544 57.4631 32.2337 55.301 30.8949C52.9644 29.4469 49.833 28.6499 46.4831 28.6499Z" fill="#50A819"/>
<path d="M46.4829 51.959C43.5883 51.959 40.7986 51.4165 38.418 50.3908L38.3946 50.3813C36.2185 49.4413 34.478 48.1385 33.3628 46.604C32.4368 45.3297 31.9698 43.9565 31.9698 42.5224C31.9698 42.2113 32.0934 41.9129 32.3134 41.6929C32.5334 41.4729 32.8318 41.3493 33.1429 41.3493C33.454 41.3493 33.7524 41.4729 33.9724 41.6929C34.1923 41.9129 34.3159 42.2113 34.3159 42.5224C34.3159 43.4506 34.6349 44.359 35.2632 45.2234C36.1269 46.4104 37.5243 47.4464 39.3052 48.2184L39.3264 48.2272C41.424 49.1334 43.8999 49.6129 46.4866 49.6129C49.0732 49.6129 51.5454 49.1334 53.646 48.2272L53.6679 48.2184C55.4481 47.4464 56.8455 46.4104 57.7092 45.2234C58.3346 44.359 58.6535 43.4506 58.6535 42.5224C58.6535 42.2113 58.7771 41.9129 58.9971 41.6929C59.2171 41.4729 59.5155 41.3493 59.8266 41.3493C60.1377 41.3493 60.4361 41.4729 60.6561 41.6929C60.8761 41.9129 60.9996 42.2113 60.9996 42.5224C60.9996 43.9565 60.5297 45.3297 59.6066 46.6032C58.4922 48.1356 56.7524 49.4413 54.5771 50.3813L54.5536 50.3908C52.1672 51.4165 49.3782 51.959 46.4829 51.959Z" fill="#50A819"/>
<path d="M46.4827 51.9591C43.5787 51.9591 40.7809 51.4136 38.3922 50.3813C38.2508 50.3202 38.1228 50.2319 38.0155 50.1213C37.9082 50.0107 37.8237 49.8801 37.7669 49.7369C37.7101 49.5937 37.682 49.4407 37.6843 49.2867C37.6867 49.1326 37.7193 48.9805 37.7804 48.8391C37.8415 48.6976 37.9298 48.5696 38.0404 48.4623C38.151 48.355 38.2816 48.2706 38.4248 48.2138C38.568 48.157 38.721 48.1289 38.875 48.1312C39.0291 48.1335 39.1812 48.1662 39.3226 48.2273C41.4202 49.1335 43.8961 49.6129 46.4827 49.6129C49.0694 49.6129 51.5416 49.1335 53.6421 48.2273C53.7836 48.1662 53.9357 48.1335 54.0897 48.1312C54.2438 48.1289 54.3968 48.157 54.54 48.2138C54.6832 48.2706 54.8138 48.355 54.9244 48.4623C55.0349 48.5696 55.1233 48.6976 55.1844 48.8391C55.2454 48.9805 55.2781 49.1326 55.2804 49.2867C55.2827 49.4407 55.2547 49.5937 55.1978 49.7369C55.141 49.8801 55.0566 50.0107 54.9493 50.1213C54.842 50.2319 54.714 50.3202 54.5725 50.3813C52.1846 51.4136 49.3876 51.9591 46.4827 51.9591Z" fill="#50A819"/>
<path d="M46.4827 58.7401C43.5787 58.7401 40.7809 58.1946 38.3922 57.163C38.2508 57.102 38.1228 57.0136 38.0155 56.903C37.9082 56.7925 37.8237 56.6619 37.7669 56.5186C37.7101 56.3754 37.682 56.2224 37.6843 56.0684C37.6867 55.9143 37.7193 55.7623 37.7804 55.6208C37.8415 55.4794 37.9298 55.3514 38.0404 55.2441C38.151 55.1368 38.2816 55.0523 38.4248 54.9955C38.568 54.9387 38.721 54.9106 38.875 54.913C39.0291 54.9153 39.1812 54.9479 39.3226 55.009C41.4239 55.9152 43.8968 56.3939 46.4827 56.3939C49.0686 56.3939 51.5416 55.9152 53.6421 55.009C53.7836 54.9479 53.9357 54.9153 54.0897 54.913C54.2438 54.9106 54.3968 54.9387 54.54 54.9955C54.6832 55.0523 54.8138 55.1368 54.9244 55.2441C55.0349 55.3514 55.1233 55.4794 55.1844 55.6208C55.2454 55.7623 55.2781 55.9143 55.2804 56.0684C55.2827 56.2224 55.2547 56.3754 55.1978 56.5186C55.141 56.6619 55.0566 56.7925 54.9493 56.903C54.842 57.0136 54.714 57.102 54.5725 57.163C52.1846 58.1946 49.3868 58.7401 46.4827 58.7401Z" fill="#50A819"/>
<path d="M46.4826 58.7401C43.5881 58.7401 40.7991 58.1983 38.4178 57.1726L38.3943 57.1631C36.219 56.2231 34.4792 54.9166 33.3648 53.385C32.4388 52.1115 31.9718 50.7383 31.9718 49.3035V35.7399C31.9718 35.4287 32.0953 35.1304 32.3153 34.9104C32.5353 34.6904 32.8337 34.5668 33.1448 34.5668C33.4559 34.5668 33.7543 34.6904 33.9743 34.9104C34.1943 35.1304 34.3179 35.4287 34.3179 35.7399V49.3035C34.3179 50.2317 34.6368 51.1408 35.2651 52.0052C36.1288 53.1922 37.5262 54.2275 39.3071 55.0002L39.3284 55.009C41.4238 55.9152 43.8968 56.394 46.4826 56.394C49.0685 56.394 51.5415 55.9152 53.642 55.009L53.6633 55.0002C55.4442 54.2275 56.8416 53.1922 57.7053 52.0045C58.3343 51.1445 58.6533 50.2317 58.6533 49.3035V35.7399C58.6533 35.4287 58.7768 35.1304 58.9968 34.9104C59.2168 34.6904 59.5152 34.5668 59.8263 34.5668C60.1374 34.5668 60.4358 34.6904 60.6558 34.9104C60.8758 35.1304 60.9994 35.4287 60.9994 35.7399V49.3035C60.9994 50.7383 60.5294 52.1115 59.6064 53.385C58.492 54.9166 56.7529 56.2231 54.5768 57.1631L54.5534 57.1726C52.1669 58.1983 49.3779 58.7401 46.4826 58.7401Z" fill="#50A819"/>
<path d="M46.4465 22.6278C46.2718 22.6279 46.0993 22.5889 45.9416 22.5138C45.7839 22.4387 45.6449 22.3293 45.5349 22.1936C45.4249 22.058 45.3465 21.8994 45.3056 21.7296C45.2647 21.5598 45.2622 21.383 45.2983 21.2121L45.8599 18.5587C42.0474 17.5697 38.2833 16.39 34.6424 15.0476C28.3802 12.73 22.3225 9.89349 16.5324 6.56773C15.8111 6.15557 15.2597 5.50052 14.9766 4.71948C14.6935 3.93844 14.6972 3.08222 14.9869 2.30361C15.1636 1.82354 15.4428 1.38776 15.8052 1.02663C16.1675 0.665499 16.6042 0.387704 17.0849 0.212595C17.5655 0.0374864 18.0786 -0.0307262 18.5883 0.0127083C19.098 0.0561428 19.5921 0.21018 20.0362 0.464091C28.5987 5.37838 37.7714 9.1431 47.3175 11.6611L47.8673 9.0627C47.91 8.86135 48.0049 8.67477 48.1425 8.52169C48.2801 8.36862 48.4555 8.25444 48.6512 8.19063C48.8469 8.12681 49.0559 8.11561 49.2573 8.15813C49.4587 8.20066 49.6453 8.29543 49.7985 8.43291L59.0364 16.7317C59.1897 16.8692 59.3041 17.0448 59.368 17.2406C59.432 17.4364 59.4432 17.6456 59.4006 17.8472C59.358 18.0487 59.2631 18.2355 59.1255 18.3887C58.9878 18.5419 58.8122 18.6562 58.6163 18.72L46.8123 22.5706C46.6941 22.6086 46.5706 22.6279 46.4465 22.6278ZM18.2927 2.34614C18.0517 2.3451 17.8161 2.41838 17.6181 2.556C17.4202 2.69361 17.2694 2.88888 17.1864 3.11523C17.0897 3.37403 17.0882 3.65881 17.1822 3.9186C17.2762 4.17839 17.4596 4.39625 17.6996 4.53318C23.3767 7.79337 29.3159 10.5742 35.4555 12.8466C39.4083 14.3022 43.4371 15.5424 47.5242 16.5616C47.819 16.635 48.0739 16.8199 48.2351 17.0774C48.3963 17.3349 48.4514 17.6449 48.3886 17.9421L48.0147 19.7098L55.9579 17.1195L49.7428 11.5357L49.3608 13.3459C49.3281 13.5003 49.2646 13.6466 49.174 13.7759C49.0835 13.9052 48.9677 14.0149 48.8337 14.0984C48.6998 14.182 48.5503 14.2376 48.3943 14.262C48.2384 14.2863 48.0791 14.279 47.926 14.2403C37.7488 11.6743 27.9719 7.72349 18.869 2.49864C18.6943 2.39849 18.4963 2.34591 18.2949 2.34614H18.2927Z" fill="#50A819"/>
</svg>
