<svg width="59" height="60" viewBox="0 0 59 60" fill="none" xmlns="http://www.w3.org/2000/svg">
<g clip-path="url(#clip0_16_35)">
<path d="M44.5128 14.0182L31.024 6.30003C29.783 5.60458 28.2722 5.60458 27.0313 6.30003L13.5425 14.0182C12.2745 14.7409 11.4922 16.1046 11.4922 17.5773V32.9319C11.4922 34.4046 12.2745 35.7682 13.5425 36.4909L27.0313 44.2091C28.2722 44.9182 29.783 44.9182 31.024 44.2091L44.5128 36.4909C45.7807 35.7682 46.5631 34.4046 46.5631 32.9319V17.5773C46.5631 16.1046 45.7807 14.7409 44.5128 14.0182ZM43.8653 32.9319C43.8653 33.4228 43.609 33.8728 43.1774 34.1182L29.6886 41.8364C29.2704 42.0682 28.7713 42.0682 28.3532 41.8364L14.8644 34.1182C14.4462 33.8728 14.1765 33.4228 14.1765 32.9319V17.5773C14.1765 17.0864 14.4327 16.6364 14.8644 16.3909L28.3532 8.67276C28.7713 8.44094 29.2704 8.44094 29.6886 8.67276L43.1774 16.3909C43.5955 16.6364 43.8653 17.0864 43.8653 17.5773V32.9319Z" fill="#50A819"/>
<path d="M38.9149 19.9364L32.737 18.9682C32.683 18.8728 29.9583 12.9955 29.9583 12.9955C29.675 12.3682 28.9466 12.0955 28.3262 12.3819C28.0564 12.5046 27.8406 12.7228 27.7192 12.9955L24.9405 18.9682L18.7626 19.9364C18.0882 20.0591 17.6295 20.7 17.7509 21.3819C17.7914 21.6273 17.8993 21.8591 18.0747 22.0364L22.5934 26.7L21.5143 33.3273C21.4199 34.0228 21.892 34.6637 22.5799 34.7591C22.8362 34.8 23.106 34.7591 23.3353 34.6228L28.8522 31.541L34.3826 34.6228C34.9896 34.95 35.745 34.7046 36.0687 34.091C36.1901 33.8591 36.2441 33.5864 36.2036 33.3137L35.1245 26.7L39.6298 22.0228C39.9535 21.6819 40.0614 21.2046 39.913 20.7546C39.7781 20.3046 39.4005 19.991 38.9418 19.9228L38.9149 19.9364ZM33.1821 24.7773C32.5616 25.4046 32.2784 26.2773 32.4268 27.15L33.0068 30.7637L30.1202 29.1546C29.2434 28.691 28.1778 28.7182 27.328 29.25L24.6302 30.7637C24.7786 29.8364 25.0754 28.0773 25.2102 27.15C25.2372 27 25.2507 26.85 25.2372 26.7C25.2372 25.991 24.954 25.2955 24.4684 24.791L21.946 22.2L25.3182 21.6682C26.114 21.5455 26.8019 21.0682 27.2201 20.3728C27.2875 20.2773 28.8118 16.991 28.8118 16.991L30.2955 20.1819C30.7002 20.9864 31.469 21.5319 32.3458 21.6682L35.6776 22.1864L33.1821 24.7637V24.7773Z" fill="#50A819"/>
<path d="M58.7842 47.5091L51.6216 36.5318C51.8509 35.85 51.9588 35.1409 51.9723 34.4182V16.0773C51.9723 13.6227 50.6639 11.3591 48.5462 10.1455L32.3596 0.886381C30.2958 -0.286346 27.7734 -0.286346 25.7096 0.886381L9.52308 10.1591C7.41882 11.3727 6.11041 13.6364 6.09692 16.0909V34.4318C6.09692 35.4682 6.33972 36.5046 6.81183 37.4318L0.229294 47.5227C-0.17537 48.15 -0.0135048 48.9955 0.60698 49.4182C0.795823 49.5409 1.02513 49.6227 1.25444 49.6364L11.1552 50.3455L15.6875 59.2637C15.9033 59.7 16.3349 59.9727 16.8205 60H16.888C17.3466 60 17.7647 59.7682 18.021 59.3864L24.7519 49.0773L25.7096 49.6227C27.7734 50.7955 30.2958 50.7955 32.3596 49.6227L34.0052 48.6818L40.9924 59.3864C41.2352 59.7682 41.6669 60 42.112 60H42.1795C42.6651 59.9727 43.0832 59.7 43.3125 59.2637L47.8582 50.3455L57.759 49.6364C58.5009 49.5818 59.0674 48.9273 59.0135 48.1773C59 47.9455 58.919 47.7136 58.7976 47.5227L58.7842 47.5091ZM22.3914 47.7273L17.0363 55.9364L13.2055 48.4091C12.9897 47.9864 12.5715 47.7137 12.0994 47.6727L3.74987 47.0727L8.56537 39.6955C8.87561 39.9409 9.18585 40.1591 9.52308 40.3637L22.4049 47.7273H22.3914ZM31.0242 47.25C29.7832 47.9591 28.2725 47.9591 27.0315 47.25L10.845 37.9773C10.4133 37.7318 10.0222 37.3909 9.72541 36.9818C9.1319 36.2727 8.79468 35.3591 8.78119 34.4318V16.0909C8.78119 14.6182 9.56354 13.2546 10.8315 12.5318L27.018 3.25911C28.259 2.55002 29.7698 2.55002 31.0107 3.25911L47.1973 12.5318C48.4652 13.2546 49.2476 14.6182 49.2476 16.0773V34.4182C49.2206 35.8909 48.4517 37.2409 47.1973 37.9773L31.0107 47.2364L31.0242 47.25ZM46.914 47.6727C46.4419 47.7 46.0238 47.9864 45.8079 48.4091L41.9771 55.9364L36.3523 47.3318L48.5327 40.3637C49.0992 40.0227 49.6118 39.6137 50.0704 39.15L55.2501 47.0864L46.9005 47.6864L46.914 47.6727Z" fill="#50A819"/>
</g>
<defs>
<clipPath id="clip0_16_35">
<rect width="59" height="60" fill="white"/>
</clipPath>
</defs>
</svg>
