<svg width="58" height="58" viewBox="0 0 58 58" fill="none" xmlns="http://www.w3.org/2000/svg">
<path d="M35.5482 20.5001H22.4327C21.3653 20.5001 20.5 21.3654 20.5 22.4328V35.5483C20.5 36.6156 21.3653 37.481 22.4327 37.481H35.5482C36.6155 37.481 37.4809 36.6156 37.4809 35.5483V22.4328C37.4809 21.3654 36.6155 20.5001 35.5482 20.5001ZM33.6155 33.6156H24.3654V24.3655H33.6155V33.6156Z" fill="#50A819"/>
<path d="M56.0672 19.5516C57.1345 19.5516 57.9998 18.6862 57.9998 17.6189C57.9998 16.5516 57.1345 15.6862 56.0672 15.6862H49.245C48.3731 12.2783 45.7027 9.60795 42.2948 8.73597V1.9327C42.2948 0.865376 41.4294 0 40.3621 0C39.2948 0 38.4294 0.865376 38.4294 1.9327V8.40365H30.9232V1.9327C30.9232 0.865376 30.0578 0 28.9905 0C27.9232 0 27.0578 0.865376 27.0578 1.9327V8.40365H19.5516V1.9327C19.5516 0.865376 18.6862 0 17.6189 0C16.5516 0 15.6862 0.865376 15.6862 1.9327V8.73596C12.2783 9.60795 9.60795 12.2783 8.73596 15.6862H1.9327C0.865376 15.6862 0 16.5516 0 17.6189C0 18.6862 0.865376 19.5516 1.9327 19.5516H8.40365V27.0578H1.9327C0.865376 27.0578 0 27.9232 0 28.9905C0 30.0578 0.865376 30.9232 1.9327 30.9232H8.40365V38.4294H1.9327C0.865376 38.4294 0 39.2948 0 40.3621C0 41.4294 0.865376 42.2948 1.9327 42.2948H8.73596C9.60793 45.7027 12.2783 48.373 15.6862 49.245V56.0672C15.6862 57.1345 16.5516 57.9999 17.6189 57.9999C18.6862 57.9999 19.5516 57.1345 19.5516 56.0672V49.5773H27.0578V56.0672C27.0578 57.1345 27.9232 57.9999 28.9905 57.9999C30.0578 57.9999 30.9232 57.1345 30.9232 56.0672V49.5773H38.4294V56.0672C38.4294 57.1345 39.2948 57.9999 40.3621 57.9999C41.4294 57.9999 42.2948 57.1345 42.2948 56.0672V49.245C45.7027 48.3731 48.373 45.7027 49.245 42.2948H56.0672C57.1345 42.2948 57.9998 41.4294 57.9998 40.3621C57.9998 39.2948 57.1345 38.4294 56.0672 38.4294H49.5773V30.9232H56.0672C57.1345 30.9232 57.9998 30.0578 57.9998 28.9905C57.9998 27.9232 57.1345 27.0578 56.0672 27.0578H49.5773V19.5516H56.0672ZM39.9138 45.7119H18.0672C14.8699 45.7119 12.2691 43.1111 12.2691 39.9138V18.0672C12.2691 14.8699 14.8699 12.2691 18.0672 12.2691H39.9138C43.1111 12.2691 45.7119 14.8699 45.7119 18.0672V39.9138C45.7119 43.1111 43.1111 45.7119 39.9138 45.7119Z" fill="#50A819"/>
</svg>
