<svg width="74" height="74" viewBox="0 0 74 74" fill="none" xmlns="http://www.w3.org/2000/svg">
<path d="M24.0371 63.0323C20.3155 63.0278 16.7477 61.5474 14.1162 58.9158C11.4846 56.2843 10.0042 52.7165 9.99973 48.9949V24.0373C10.0042 20.3158 11.4846 16.7479 14.1162 14.1164C16.7477 11.4849 20.3155 10.0045 24.0371 9.99998C27.7586 10.0045 31.3265 11.4849 33.958 14.1164C36.5896 16.7479 38.0699 20.3158 38.0744 24.0373V48.9949C38.0699 52.7165 36.5896 56.2843 33.958 58.9158C31.3265 61.5474 27.7586 63.0278 24.0371 63.0323ZM24.0371 13.1205C21.1429 13.1241 18.3682 14.2754 16.3217 16.322C14.2752 18.3685 13.1239 21.1431 13.1203 24.0373V48.9949C13.1239 51.8891 14.2752 54.6638 16.3217 56.7103C18.3682 58.7568 21.1429 59.9081 24.0371 59.9117C26.9319 59.909 29.7074 58.7581 31.7547 56.7115C33.8019 54.6649 34.9537 51.8897 34.9573 48.9949V24.0373C34.9537 21.1425 33.8019 18.3674 31.7547 16.3208C29.7074 14.2741 26.9319 13.1232 24.0371 13.1205Z" fill="#50A819"/>
<path d="M42.7535 63.0356C38.7177 63.038 34.7734 61.8327 31.4283 59.5747C31.1246 59.3283 30.9241 58.9771 30.8664 58.5902C30.8087 58.2034 30.8978 57.8089 31.1164 57.4846C31.3349 57.1602 31.667 56.9293 32.0472 56.8375C32.4274 56.7457 32.8282 56.7996 33.1707 56.9885C35.7514 58.728 38.7568 59.7325 41.8649 59.8944C44.9729 60.0563 48.0664 59.3694 50.8139 57.9073C53.5614 56.4453 55.8593 54.2632 57.4613 51.595C59.0633 48.9267 59.9091 45.8728 59.908 42.7605C59.9081 40.0164 59.2494 37.3124 57.9872 34.8758C56.7251 32.4392 54.8964 30.3413 52.6548 28.7583C50.4133 27.1754 47.8245 26.1538 45.1061 25.7793C42.3877 25.4049 39.6191 25.6886 37.0331 26.6065C36.6538 26.7051 36.2514 26.6578 35.9053 26.474C35.5592 26.2903 35.2946 25.9834 35.1638 25.614C35.033 25.2447 35.0455 24.8397 35.1988 24.4791C35.3521 24.1185 35.635 23.8284 35.9918 23.6663C38.1808 22.887 40.4877 22.4898 42.8114 22.4923C53.7656 22.5059 63.0252 31.3741 63.0252 42.7571C63.0265 45.4199 62.5031 48.0569 61.4849 50.5174C60.4667 52.9778 58.9737 55.2135 57.0911 57.0968C55.2086 58.98 52.9733 60.4737 50.5132 61.4928C48.0531 62.5118 45.4163 63.036 42.7535 63.0356Z" fill="#50A819"/>
<path d="M35.4134 50.0974C35.2685 49.9526 35.1536 49.7808 35.0751 49.5916C34.9967 49.4024 34.9564 49.1996 34.9564 48.9948C34.9564 48.79 34.9967 48.5872 35.0751 48.398C35.1536 48.2089 35.2685 48.037 35.4134 47.8922L54.8853 28.4203C55.0301 28.2755 55.202 28.1606 55.3912 28.0823C55.5803 28.0039 55.7831 27.9636 55.9879 27.9636C56.1926 27.9636 56.3954 28.0039 56.5846 28.0823C56.7738 28.1606 56.9457 28.2755 57.0904 28.4203C57.2352 28.5651 57.3501 28.737 57.4285 28.9262C57.5068 29.1153 57.5471 29.3181 57.5471 29.5229C57.5471 29.7276 57.5068 29.9304 57.4285 30.1196C57.3501 30.3088 57.2352 30.4806 57.0904 30.6254L37.6185 50.0974C37.4738 50.2423 37.3019 50.3572 37.1127 50.4356C36.9235 50.514 36.7207 50.5544 36.5159 50.5544C36.3111 50.5544 36.1084 50.514 35.9192 50.4356C35.73 50.3572 35.5581 50.2423 35.4134 50.0974ZM36.5159 38.0746H11.5618C11.3571 38.0746 11.1544 38.0343 10.9653 37.956C10.7762 37.8776 10.6044 37.7628 10.4597 37.6181C10.315 37.4734 10.2002 37.3016 10.1218 37.1125C10.0435 36.9234 10.0032 36.7207 10.0032 36.516C10.0032 36.3113 10.0435 36.1087 10.1218 35.9196C10.2002 35.7305 10.315 35.5587 10.4597 35.4139C10.6044 35.2692 10.7762 35.1544 10.9653 35.0761C11.1544 34.9978 11.3571 34.9574 11.5618 34.9574H36.5159C36.7206 34.9574 36.9233 34.9978 37.1124 35.0761C37.3015 35.1544 37.4733 35.2692 37.618 35.4139C37.7627 35.5587 37.8775 35.7305 37.9559 35.9196C38.0342 36.1087 38.0745 36.3113 38.0745 36.516C38.0745 36.7207 38.0342 36.9234 37.9559 37.1125C37.8775 37.3016 37.7627 37.4734 37.618 37.6181C37.4733 37.7628 37.3015 37.8776 37.1124 37.956C36.9233 38.0343 36.7206 38.0746 36.5159 38.0746Z" fill="#50A819"/>
</svg>
