<svg width="356" height="356" viewBox="0 0 356 356" fill="none" xmlns="http://www.w3.org/2000/svg">
<g clip-path="url(#clip0_5_5)">
<path d="M178.183 69.6991C178.183 69.6991 194.584 86.7227 233.03 91.6801C269.832 96.4311 280.943 85.7359 280.943 85.7359C280.943 85.7359 303.162 217.626 178.183 290.104C53.1945 217.624 75.4138 85.7343 75.4138 85.7343C75.4138 85.7343 86.5269 96.4311 123.326 91.6785C161.779 86.721 178.182 69.6974 178.182 69.6974L178.183 69.6991Z" fill="url(#paint0_radial_5_5)" style="mix-blend-mode:screen"/>
<path d="M123.326 91.6809C86.5264 96.4319 75.4134 85.7367 75.4134 85.7367C75.4134 85.7367 53.194 217.626 178.181 290.105V69.6998C178.181 69.6998 161.777 86.7235 123.326 91.6809Z" fill="url(#paint1_radial_5_5)" style="mix-blend-mode:screen"/>
<g style="mix-blend-mode:screen">
<path d="M178.184 71.5996C182.292 75.3184 199.131 88.6971 232.854 93.0453C239.166 93.8609 245.149 94.2737 250.637 94.2737C267.61 94.2737 276.325 90.3853 279.894 88.1869C280.893 96.2422 283.511 125.273 275.093 160.42C269.287 184.66 259.442 206.998 245.832 226.816C228.954 251.392 206.198 272.145 178.184 288.512C150.191 272.158 127.447 251.424 110.571 226.873C96.9589 207.072 87.1078 184.751 81.2929 160.529C72.8498 125.362 75.4678 96.2557 76.4647 88.1869C80.0359 90.3853 88.7508 94.2737 105.721 94.2737C111.208 94.2737 117.191 93.8609 123.503 93.0453C157.233 88.6971 174.074 75.3184 178.182 71.5996M178.184 69.6998C178.184 69.6998 161.779 86.7235 123.328 91.6809C116.639 92.5452 110.801 92.8976 105.722 92.8976C82.8586 92.8976 75.4158 85.7367 75.4158 85.7367C75.4158 85.7367 53.1964 217.626 178.184 290.105C303.163 217.626 280.943 85.7367 280.943 85.7367C280.943 85.7367 273.506 92.8976 250.637 92.8976C245.558 92.8976 239.717 92.5435 233.031 91.6809C194.585 86.7235 178.184 69.6998 178.184 69.6998Z" fill="url(#paint2_radial_5_5)"/>
</g>
<path d="M178.183 69.6991C178.183 69.6991 194.584 86.7227 233.03 91.6801C269.832 96.4311 280.943 85.7359 280.943 85.7359C280.943 85.7359 303.162 217.626 178.183 290.104C53.1945 217.624 75.4138 85.7343 75.4138 85.7343C75.4138 85.7343 86.5269 96.4311 123.326 91.6785C161.779 86.721 178.182 69.6974 178.182 69.6974L178.183 69.6991Z" fill="url(#paint3_radial_5_5)" style="mix-blend-mode:screen"/>
<path d="M123.326 91.6809C86.5264 96.4319 75.4134 85.7367 75.4134 85.7367C75.4134 85.7367 53.194 217.626 178.181 290.105V69.6998C178.181 69.6998 161.777 86.7235 123.326 91.6809Z" fill="url(#paint4_radial_5_5)" style="mix-blend-mode:screen"/>
<g style="mix-blend-mode:screen">
<path d="M178.184 71.5996C182.292 75.3184 199.131 88.6971 232.854 93.0453C239.166 93.8609 245.149 94.2737 250.637 94.2737C267.61 94.2737 276.325 90.3853 279.894 88.1869C280.893 96.2422 283.511 125.273 275.093 160.42C269.287 184.66 259.442 206.998 245.832 226.816C228.954 251.392 206.198 272.145 178.184 288.512C150.191 272.158 127.447 251.424 110.571 226.873C96.9589 207.072 87.1078 184.751 81.2929 160.529C72.8498 125.362 75.4678 96.2557 76.4647 88.1869C80.0359 90.3853 88.7508 94.2737 105.721 94.2737C111.208 94.2737 117.191 93.8609 123.503 93.0453C157.233 88.6971 174.074 75.3184 178.182 71.5996M178.184 69.6998C178.184 69.6998 161.779 86.7235 123.328 91.6809C116.639 92.5452 110.801 92.8976 105.722 92.8976C82.8586 92.8976 75.4158 85.7367 75.4158 85.7367C75.4158 85.7367 53.1964 217.626 178.184 290.105C303.163 217.626 280.943 85.7367 280.943 85.7367C280.943 85.7367 273.506 92.8976 250.637 92.8976C245.558 92.8976 239.717 92.5435 233.031 91.6809C194.585 86.7235 178.184 69.6998 178.184 69.6998Z" fill="url(#paint5_radial_5_5)"/>
</g>
<path d="M243.213 181.593C287.33 181.593 323.094 145.829 323.094 101.712C323.094 57.5955 287.33 21.8317 243.213 21.8317C199.096 21.8317 163.333 57.5955 163.333 101.712C163.333 145.829 199.096 181.593 243.213 181.593Z" fill="url(#paint6_radial_5_5)" style="mix-blend-mode:screen"/>
<path d="M125.877 321.919C171.699 321.919 208.845 284.773 208.845 238.951C208.845 193.128 171.699 155.982 125.877 155.982C80.0545 155.982 42.9082 193.128 42.9082 238.951C42.9082 284.773 80.0545 321.919 125.877 321.919Z" fill="url(#paint7_radial_5_5)" style="mix-blend-mode:screen"/>
<path d="M160.338 239.667L112.072 191.4L135.536 167.936L160.338 192.74L238.177 114.901L261.641 138.364L160.338 239.667Z" fill="url(#paint8_linear_5_5)" style="mix-blend-mode:hard-light"/>
</g>
<defs>
<radialGradient id="paint0_radial_5_5" cx="0" cy="0" r="1" gradientUnits="userSpaceOnUse" gradientTransform="translate(175.918 167.823) scale(171.977 171.977)">
<stop offset="0.35"/>
<stop offset="0.42" stop-color="#000400"/>
<stop offset="0.5" stop-color="#001303"/>
<stop offset="0.6" stop-color="#002A06"/>
<stop offset="0.69" stop-color="#004B0C"/>
<stop offset="0.79" stop-color="#007612"/>
<stop offset="0.89" stop-color="#00AA1B"/>
<stop offset="1" stop-color="#00E825"/>
</radialGradient>
<radialGradient id="paint1_radial_5_5" cx="0" cy="0" r="1" gradientUnits="userSpaceOnUse" gradientTransform="translate(18.3563 143.643) scale(307.179 307.179)">
<stop offset="0.35"/>
<stop offset="0.42" stop-color="#000400"/>
<stop offset="0.5" stop-color="#001303"/>
<stop offset="0.6" stop-color="#002A06"/>
<stop offset="0.69" stop-color="#004B0C"/>
<stop offset="0.79" stop-color="#007612"/>
<stop offset="0.89" stop-color="#00AA1B"/>
<stop offset="1" stop-color="#00E825"/>
</radialGradient>
<radialGradient id="paint2_radial_5_5" cx="0" cy="0" r="1" gradientUnits="userSpaceOnUse" gradientTransform="translate(178.179 179.902) scale(107.287 107.287)">
<stop offset="0.44" stop-color="#00E825"/>
<stop offset="0.63" stop-color="#009217"/>
<stop offset="0.89" stop-color="#002906"/>
<stop offset="1"/>
</radialGradient>
<radialGradient id="paint3_radial_5_5" cx="0" cy="0" r="1" gradientUnits="userSpaceOnUse" gradientTransform="translate(175.918 167.823) scale(171.977 171.977)">
<stop offset="0.35"/>
<stop offset="0.42" stop-color="#000400"/>
<stop offset="0.5" stop-color="#001303"/>
<stop offset="0.6" stop-color="#002A06"/>
<stop offset="0.69" stop-color="#004B0C"/>
<stop offset="0.79" stop-color="#007612"/>
<stop offset="0.89" stop-color="#00AA1B"/>
<stop offset="1" stop-color="#00E825"/>
</radialGradient>
<radialGradient id="paint4_radial_5_5" cx="0" cy="0" r="1" gradientUnits="userSpaceOnUse" gradientTransform="translate(18.3563 143.643) scale(307.179 307.179)">
<stop offset="0.35"/>
<stop offset="0.42" stop-color="#000400"/>
<stop offset="0.5" stop-color="#001303"/>
<stop offset="0.6" stop-color="#002A06"/>
<stop offset="0.69" stop-color="#004B0C"/>
<stop offset="0.79" stop-color="#007612"/>
<stop offset="0.89" stop-color="#00AA1B"/>
<stop offset="1" stop-color="#00E825"/>
</radialGradient>
<radialGradient id="paint5_radial_5_5" cx="0" cy="0" r="1" gradientUnits="userSpaceOnUse" gradientTransform="translate(178.179 179.902) scale(107.287 107.287)">
<stop offset="0.44" stop-color="#00E825"/>
<stop offset="0.63" stop-color="#009217"/>
<stop offset="0.89" stop-color="#002906"/>
<stop offset="1"/>
</radialGradient>
<radialGradient id="paint6_radial_5_5" cx="0" cy="0" r="1" gradientUnits="userSpaceOnUse" gradientTransform="translate(243.213 101.712) scale(79.8807)">
<stop offset="0.17" stop-color="#00400A"/>
<stop offset="0.45" stop-color="#002906"/>
<stop offset="1"/>
</radialGradient>
<radialGradient id="paint7_radial_5_5" cx="0" cy="0" r="1" gradientUnits="userSpaceOnUse" gradientTransform="translate(125.877 238.951) scale(82.9685)">
<stop offset="0.17" stop-color="#00400A"/>
<stop offset="0.45" stop-color="#002906"/>
<stop offset="1"/>
</radialGradient>
<linearGradient id="paint8_linear_5_5" x1="180.259" y1="143.526" x2="204.625" y2="222.395" gradientUnits="userSpaceOnUse">
<stop offset="0.24" stop-color="#73FF49"/>
<stop offset="1" stop-color="#33CC27"/>
</linearGradient>
<clipPath id="clip0_5_5">
<rect width="356" height="356" fill="white"/>
</clipPath>
</defs>
</svg>
