<svg xmlns="http://www.w3.org/2000/svg" width="123" height="123" fill="none" viewBox="0 0 123 123"><path fill="#346545" fill-rule="evenodd" d="M122.765 83.287V59.649c0-1.909-1.143-4.66-2.491-6.007L83.387 16.755c-1.348-1.349-4.101-2.49-6.007-2.49H65.624c-1.909 0-4.66 1.141-6.007 2.49l-6.811 6.805c-.542.544-.71.987-.634 1.167.073.18.505.375 1.273.375h18.898c2.284 0 5.338 1.267 6.954 2.88L109.1 57.78c1.615 1.615 2.879 4.67 2.879 6.953v13.527c-.002 2.284-1.269 5.339-2.885 6.954L73.093 121.22c-.545.542-.712.987-.637 1.168.076.181.507.612 1.275.612h9.561c1.91 0 4.66-1.378 6.008-2.726l30.982-30.98c1.348-1.35 2.489-4.1 2.489-6.01z" clip-rule="evenodd"/><path fill="#3a8537" fill-rule="evenodd" d="M108.5 77.617V65.86c0-1.906-1.138-4.656-2.489-6.007l-6.808-6.813c-.607-.604-.973-.653-1.07-.653-.054 0-.149 0-.254.178-.08.132-.216.456-.216 1.113V72.58c0 2.287-1.264 5.341-2.88 6.954l-29.8 29.796c-1.589 1.588-4.708 2.882-6.954 2.882H44.504c-2.283 0-5.341-1.264-6.956-2.882L1.542 73.327c-.606-.604-.97-.652-1.07-.652-.278 0-.47.53-.47 1.291v9.558c0 1.906 1.139 4.66 2.487 6.007l30.982 30.98c1.348 1.351 4.101 2.489 6.007 2.489h23.638c1.907 0 4.66-1.138 6.008-2.489l36.89-36.887c1.348-1.35 2.488-4.1 2.488-6.007z" clip-rule="evenodd"/><path fill="#3a8537" fill-rule="evenodd" d="M89.297 2.491C87.949 1.141 85.196 0 83.29 0H59.652c-1.907 0-4.66 1.14-6.007 2.489l-36.89 36.89c-1.349 1.348-2.49 4.1-2.49 6.007v11.758c0 1.907 1.139 4.66 2.487 6.008l6.808 6.808c.604.606.97.652 1.068.652.277 0 .471-.531.471-1.291V50.42c0-2.284 1.265-5.339 2.883-6.954L57.78 13.667c1.615-1.615 4.67-2.882 6.953-2.882h13.527c2.287 0 5.342 1.267 6.957 2.885l36.003 36.003c.606.607.97.652 1.07.652.057 0 .148 0 .256-.178.081-.134.216-.455.216-1.113v-9.558c0-1.91-1.141-4.66-2.489-6.007z" clip-rule="evenodd"/><path fill="#346545" fill-rule="evenodd" d="M70.593 98.04c-.075-.18-.507-.374-1.275-.374H50.423c-2.287 0-5.342-1.267-6.957-2.88L13.67 64.99c-1.615-1.615-2.882-4.67-2.882-6.953V44.504c0-2.283 1.267-5.341 2.882-6.953L49.676 1.542c.544-.542.711-.987.636-1.167C50.236.195 49.808 0 49.037 0h-9.559c-1.906 0-4.659 1.14-6.007 2.489L2.49 33.469C1.14 34.819 0 37.569 0 39.476v23.638c0 1.906 1.14 4.659 2.489 6.007l36.89 36.89c1.35 1.348 4.1 2.489 6.007 2.489H57.14c1.907 0 4.66-1.141 6.008-2.489l6.808-6.808c.544-.542.712-.984.636-1.165z" clip-rule="evenodd"/></svg>