<svg width="64" height="64" viewBox="0 0 64 64" fill="none" xmlns="http://www.w3.org/2000/svg">
<path d="M58.3125 28.625V16.8125C58.3125 14.7597 56.8368 13.0485 54.8911 12.6747C54.5106 9.31072 51.6511 6.6875 48.1875 6.6875C44.7518 6.6875 41.9134 9.26937 41.4957 12.5938H38.0034C37.5866 9.26937 34.7483 6.6875 31.3125 6.6875C27.8768 6.6875 25.0384 9.26937 24.6207 12.5938H21.1284C20.7116 9.26937 17.8733 6.6875 14.4375 6.6875C10.7157 6.6875 7.6875 9.71572 7.6875 13.4375C7.6875 17.1593 10.7157 20.1875 14.4375 20.1875C17.8733 20.1875 20.7116 17.6056 21.1293 14.2812H24.6216C25.0392 17.6056 27.8776 20.1875 31.3133 20.1875C34.7491 20.1875 37.5875 17.6056 38.0051 14.2812H41.4974C41.9151 17.6056 44.7534 20.1875 48.1892 20.1875C51.5794 20.1875 54.3857 17.6723 54.8607 14.412C55.8791 14.7386 56.625 15.6853 56.625 16.8125V28.625C56.625 30.0206 55.4893 31.1562 54.0938 31.1562H40.0993L42.034 29.2215L40.841 28.0285L37.7132 31.1562H33.3493L35.284 29.2215L34.091 28.0285L30.9632 31.1562H26.5993L28.534 29.2215L27.341 28.0285L24.2132 31.1562H11.9063C9.58003 31.1562 7.6875 33.0488 7.6875 35.375V47.1875C7.6875 49.2403 9.16322 50.9515 11.1089 51.3252C11.4894 54.6893 14.3489 57.3125 17.8125 57.3125C21.2483 57.3125 24.0866 54.7306 24.5043 51.4062H27.9966C28.4142 54.7306 31.2526 57.3125 34.6883 57.3125C38.1241 57.3125 40.9625 54.7306 41.3801 51.4062H44.8724C45.2901 54.7306 48.1284 57.3125 51.5642 57.3125C55.286 57.3125 58.3142 54.2843 58.3142 50.5625C58.3142 46.8407 55.286 43.8125 51.5642 43.8125C48.1284 43.8125 45.2901 46.3944 44.8724 49.7188H41.3801C40.9625 46.3944 38.1241 43.8125 34.6883 43.8125C31.2526 43.8125 28.4142 46.3944 27.9966 49.7188H24.5043C24.0866 46.3944 21.2483 43.8125 17.8125 43.8125C14.4223 43.8125 11.616 46.3277 11.141 49.588C10.1209 49.2614 9.375 48.3148 9.375 47.1875V35.375C9.375 33.9794 10.5107 32.8438 11.9063 32.8438H24.2132L27.341 35.9715L28.534 34.7785L26.5993 32.8438H30.9632L34.091 35.9715L35.284 34.7785L33.3493 32.8438H37.7132L40.841 35.9715L42.034 34.7785L40.0993 32.8438H54.0938C56.42 32.8438 58.3125 30.9512 58.3125 28.625ZM14.4375 18.5C11.6455 18.5 9.375 16.2295 9.375 13.4375C9.375 10.6455 11.6455 8.375 14.4375 8.375C17.2295 8.375 19.5 10.6455 19.5 13.4375C19.5 16.2295 17.2295 18.5 14.4375 18.5ZM31.3125 18.5C28.5205 18.5 26.25 16.2295 26.25 13.4375C26.25 10.6455 28.5205 8.375 31.3125 8.375C34.1045 8.375 36.375 10.6455 36.375 13.4375C36.375 16.2295 34.1045 18.5 31.3125 18.5ZM48.1875 18.5C45.3955 18.5 43.125 16.2295 43.125 13.4375C43.125 10.6455 45.3955 8.375 48.1875 8.375C50.9795 8.375 53.25 10.6455 53.25 13.4375C53.25 16.2295 50.9795 18.5 48.1875 18.5ZM51.5625 45.5C54.3545 45.5 56.625 47.7705 56.625 50.5625C56.625 53.3545 54.3545 55.625 51.5625 55.625C48.7705 55.625 46.5 53.3545 46.5 50.5625C46.5 47.7705 48.7705 45.5 51.5625 45.5ZM34.6875 45.5C37.4795 45.5 39.75 47.7705 39.75 50.5625C39.75 53.3545 37.4795 55.625 34.6875 55.625C31.8955 55.625 29.625 53.3545 29.625 50.5625C29.625 47.7705 31.8955 45.5 34.6875 45.5ZM17.8125 45.5C20.6045 45.5 22.875 47.7705 22.875 50.5625C22.875 53.3545 20.6045 55.625 17.8125 55.625C15.0205 55.625 12.75 53.3545 12.75 50.5625C12.75 47.7705 15.0205 45.5 17.8125 45.5Z" fill="#50A819"/>
</svg>
