<svg width="57" height="58" viewBox="0 0 57 58" fill="none" xmlns="http://www.w3.org/2000/svg">
<path d="M11.1863 47.0099H26.2226C27.2071 47.0099 28.0038 46.1984 28.0038 45.1974C28.0038 44.1965 27.2071 43.3849 26.2226 43.3849H11.1863C8.94582 43.3849 7.12456 41.5388 7.12456 39.2696V20.2446H41.5006V21.6801C41.5006 22.681 42.2973 23.4926 43.2818 23.4926C44.2664 23.4926 45.0631 22.681 45.0631 21.6801V15.4496C45.0631 11.1714 41.6432 7.69159 37.4389 7.69159H35.5759V6.59949C35.5759 5.59854 34.7792 4.78699 33.7946 4.78699C32.81 4.78699 32.0134 5.59854 32.0134 6.59949V7.69159H16.6083V6.59949C16.6083 5.59854 15.8116 4.78699 14.8271 4.78699C13.8425 4.78699 13.0458 5.59854 13.0458 6.59949V7.69159H11.1863C6.95733 7.67081 3.54666 11.2625 3.56206 15.4496V39.2696C3.56206 43.538 6.98192 47.0099 11.1863 47.0099ZM41.4971 16.6196H7.12456V15.4496C7.12456 14.8642 7.24829 14.3089 7.46485 13.8038C8.09086 12.3455 9.51855 11.3219 11.1793 11.3219H13.0458V12.4184C13.0458 13.4194 13.8425 14.2309 14.8271 14.2309C15.8116 14.2309 16.6083 13.4194 16.6083 12.4184V11.3219H32.0134V12.4184C32.0134 13.4194 32.81 14.2309 33.7946 14.2309C34.7792 14.2309 35.5759 13.4194 35.5759 12.4184V11.3219H37.4423C39.6776 11.3219 41.4971 13.1725 41.4971 15.4478V16.6196Z" fill="#50A819"/>
<path d="M49.6414 28.1972C47.5001 27.7927 45.3118 26.8776 43.1392 25.4775C41.6276 24.5014 39.6637 24.4978 38.1416 25.4775C35.969 26.8776 33.7807 27.7927 31.6393 28.1981C29.4406 28.614 27.8438 30.5628 27.8438 32.8302V36.6525C27.8438 43.7866 32.2412 50.3003 38.7852 52.8624C39.3836 53.096 40.0116 53.2129 40.6395 53.2129C41.2692 53.2129 41.8972 53.096 42.4973 52.8624L43.4314 52.4969C49.5092 50.118 53.437 44.1424 53.437 37.2756V32.8275C53.437 30.5619 51.8419 28.6149 49.6414 28.1972ZM49.8745 37.2756C49.8745 42.6299 46.8426 47.2771 42.1512 49.1135L41.2188 49.4781C40.843 49.6233 40.436 49.6241 40.0638 49.479C34.8853 47.4523 31.4062 42.2971 31.4062 36.6525V32.8302C31.4062 32.308 31.7785 31.8585 32.2899 31.762C34.88 31.2717 37.4893 30.1876 40.0481 28.5397C40.2307 28.422 40.436 28.3635 40.6395 28.3635C40.8448 28.3635 41.05 28.422 41.2327 28.5397C43.7915 30.1876 46.4008 31.2717 48.9891 31.7611C49.5023 31.8585 49.8745 32.3072 49.8745 32.8275V37.2756Z" fill="#50A819"/>
<path d="M44.077 34.6489L39.3508 39.458L37.2042 37.2738C36.5084 36.5658 35.3812 36.5658 34.6854 37.2738C33.9896 37.9818 33.9896 39.1288 34.6854 39.8368L38.0914 43.3025C38.4393 43.6565 38.895 43.8335 39.3508 43.8335C39.8065 43.8335 40.2623 43.6565 40.6102 43.3025L46.5958 37.2119C47.2916 36.5038 47.2916 35.3569 46.5958 34.6489C45.9 33.9409 44.7728 33.9409 44.077 34.6489Z" fill="#50A819"/>
</svg>
