<svg width="56" height="56" viewBox="0 0 56 56" fill="none" xmlns="http://www.w3.org/2000/svg">
<mask id="mask0_5_180" style="mask-type:alpha" maskUnits="userSpaceOnUse" x="-8" y="-9" width="72" height="71">
<rect x="-7.68863" y="-8.88612" width="70.7367" height="70.7367" fill="#D9D9D9"/>
</mask>
<g mask="url(#mask0_5_180)">
<mask id="mask1_5_180" style="mask-type:alpha" maskUnits="userSpaceOnUse" x="-8" y="-8" width="72" height="72">
<rect x="-7.36862" y="-7.36855" width="70.7367" height="70.7367" fill="#D9D9D9"/>
</mask>
<g mask="url(#mask1_5_180)">
<path d="M23.8169 40.5375L43.6322 20.7222L40.5262 17.6162L23.8169 34.3254L15.4169 25.9255L12.3109 29.0315L23.8169 40.5375ZM28.0048 55.9998C24.1322 55.9998 20.4921 55.2649 17.0845 53.7951C13.6769 52.3254 10.7128 50.3308 8.1922 47.8113C5.67152 45.2917 3.67598 42.3289 2.20559 38.9228C0.735196 35.5168 0 31.8775 0 28.0048C0 24.1322 0.734877 20.4921 2.20463 17.0845C3.67438 13.6769 5.66901 10.7128 8.18852 8.1922C10.7081 5.67152 13.6709 3.67598 17.077 2.20559C20.483 0.735199 24.1223 0 27.995 0C31.8676 0 35.5077 0.734879 38.9152 2.20463C42.3228 3.67438 45.2869 5.66901 47.8076 8.18852C50.3283 10.7081 52.3238 13.6709 53.7942 17.077C55.2646 20.483 55.9998 24.1223 55.9998 27.995C55.9998 31.8676 55.2649 35.5077 53.7951 38.9152C52.3254 42.3228 50.3308 45.2869 47.8113 47.8076C45.2917 50.3283 42.3289 52.3238 38.9228 53.7942C35.5168 55.2646 31.8775 55.9998 28.0048 55.9998ZM27.9999 51.5788C34.5823 51.5788 40.1578 49.2946 44.7262 44.7262C49.2946 40.1578 51.5788 34.5823 51.5788 27.9999C51.5788 21.4174 49.2946 15.842 44.7262 11.2736C40.1578 6.70518 34.5823 4.42097 27.9999 4.42097C21.4174 4.42097 15.842 6.70518 11.2736 11.2736C6.70518 15.842 4.42097 21.4174 4.42097 27.9999C4.42097 34.5823 6.70518 40.1578 11.2736 44.7262C15.842 49.2946 21.4174 51.5788 27.9999 51.5788Z" fill="#50A819"/>
</g>
</g>
</svg>
